<svg width="182" height="26" viewBox="0 0 182 26" fill="none" xmlns="http://www.w3.org/2000/svg">
<g filter="url(#filter0_d)">
<path d="M45.7029 7.15543V3.02063H49.3425C49.6891 3.02063 50.0192 3.05365 50.3329 3.11967C50.663 3.16919 50.9518 3.26823 51.1994 3.41678C51.447 3.56534 51.6451 3.77166 51.7937 4.03576C51.9422 4.29986 52.0165 4.63824 52.0165 5.05089C52.0165 5.79367 51.7937 6.33012 51.348 6.66025C50.9023 6.99037 50.3329 7.15543 49.6396 7.15543H45.7029ZM41.8157 0V17.6781H50.3824C51.1747 17.6781 51.9422 17.5791 52.685 17.381C53.4443 17.1829 54.1128 16.8776 54.6905 16.4649C55.2847 16.0523 55.7551 15.5241 56.1018 14.8803C56.4484 14.2201 56.6217 13.4443 56.6217 12.553C56.6217 11.447 56.3494 10.5062 55.8047 9.7304C55.2765 8.9381 54.4677 8.38514 53.3783 8.07153C54.1706 7.69188 54.7648 7.20495 55.1609 6.61073C55.5736 6.01651 55.7799 5.27373 55.7799 4.38239C55.7799 3.55708 55.6396 2.86382 55.359 2.30261C55.0949 1.7414 54.7153 1.29574 54.2201 0.965613C53.7249 0.618982 53.1307 0.371389 52.4374 0.222834C51.7441 0.0742779 50.9766 0 50.1348 0H41.8157ZM45.7029 14.6575V9.80468H49.9367C50.7785 9.80468 51.4553 10.0028 51.967 10.3989C52.4787 10.7785 52.7345 11.4223 52.7345 12.3301C52.7345 12.7923 52.652 13.1719 52.4869 13.469C52.3384 13.7662 52.132 14.0055 51.8679 14.1871C51.6038 14.3521 51.2985 14.4759 50.9518 14.5585C50.6052 14.6245 50.2421 14.6575 49.8624 14.6575H45.7029Z" fill="white"/>
<path d="M67.4936 9.90371H61.7742C61.7907 9.65612 61.8402 9.37551 61.9227 9.0619C62.0218 8.74828 62.1786 8.45117 62.3931 8.17056C62.6242 7.88996 62.9213 7.65887 63.2845 7.4773C63.6641 7.27923 64.1345 7.18019 64.6958 7.18019C65.5541 7.18019 66.1896 7.41128 66.6022 7.87345C67.0314 8.33562 67.3285 9.01238 67.4936 9.90371ZM61.7742 12.132H71.0094C71.0754 11.1417 70.9929 10.1926 70.7618 9.28473C70.5307 8.37689 70.1511 7.56809 69.6229 6.85832C69.1112 6.14856 68.4509 5.58735 67.6421 5.17469C66.8333 4.74553 65.8842 4.53095 64.7948 4.53095C63.8209 4.53095 62.9296 4.70426 62.1208 5.05089C61.3285 5.39752 60.6435 5.8762 60.0658 6.48693C59.4881 7.08116 59.0424 7.79092 58.7288 8.61623C58.4152 9.44154 58.2583 10.3329 58.2583 11.2902C58.2583 12.2806 58.4069 13.1884 58.704 14.0138C59.0176 14.8391 59.455 15.5488 60.0163 16.1431C60.5775 16.7373 61.2625 17.1994 62.0713 17.5296C62.8801 17.8432 63.7879 18 64.7948 18C66.2473 18 67.4853 17.6699 68.5087 17.0096C69.5321 16.3494 70.2914 15.2517 70.7865 13.7166H67.6916C67.5761 14.1128 67.2625 14.4924 66.7508 14.8556C66.2391 15.2022 65.6284 15.3755 64.9186 15.3755C63.9282 15.3755 63.1689 15.1197 62.6407 14.608C62.1125 14.0963 61.8237 13.271 61.7742 12.132Z" fill="white"/>
<path d="M77.5512 4.87758V1.03989H74.0354V4.87758H71.9061V7.22971H74.0354V14.7813C74.0354 15.425 74.1427 15.945 74.3573 16.3411C74.5719 16.7373 74.8607 17.0426 75.2239 17.2572C75.6035 17.4718 76.0327 17.6121 76.5113 17.6781C77.0065 17.7607 77.5265 17.8019 78.0712 17.8019C78.4178 17.8019 78.7727 17.7937 79.1358 17.7772C79.499 17.7607 79.8291 17.7276 80.1262 17.6781V14.9546C79.9611 14.9876 79.7878 15.0124 79.6063 15.0289C79.4247 15.0454 79.2349 15.0536 79.0368 15.0536C78.4426 15.0536 78.0464 14.9546 77.8484 14.7565C77.6503 14.5585 77.5512 14.1623 77.5512 13.5681V7.22971H80.1262V4.87758H77.5512Z" fill="white"/>
<path d="M86.2557 4.87758V1.03989H82.7399V4.87758H80.6106V7.22971H82.7399V14.7813C82.7399 15.425 82.8471 15.945 83.0617 16.3411C83.2763 16.7373 83.5652 17.0426 83.9283 17.2572C84.3079 17.4718 84.7371 17.6121 85.2158 17.6781C85.711 17.7607 86.2309 17.8019 86.7756 17.8019C87.1222 17.8019 87.4771 17.7937 87.8403 17.7772C88.2034 17.7607 88.5335 17.7276 88.8306 17.6781V14.9546C88.6656 14.9876 88.4923 15.0124 88.3107 15.0289C88.1291 15.0454 87.9393 15.0536 87.7412 15.0536C87.147 15.0536 86.7509 14.9546 86.5528 14.7565C86.3547 14.5585 86.2557 14.1623 86.2557 13.5681V7.22971H88.8306V4.87758H86.2557Z" fill="white"/>
<path d="M99.1197 9.90371H93.4003C93.4168 9.65612 93.4663 9.37551 93.5488 9.0619C93.6479 8.74828 93.8047 8.45117 94.0193 8.17056C94.2503 7.88996 94.5474 7.65887 94.9106 7.4773C95.2902 7.27923 95.7607 7.18019 96.3219 7.18019C97.1802 7.18019 97.8157 7.41128 98.2283 7.87345C98.6575 8.33562 98.9546 9.01238 99.1197 9.90371ZM93.4003 12.132H102.635C102.702 11.1417 102.619 10.1926 102.388 9.28473C102.157 8.37689 101.777 7.56809 101.249 6.85832C100.737 6.14856 100.077 5.58735 99.2682 5.17469C98.4594 4.74553 97.5103 4.53095 96.4209 4.53095C95.447 4.53095 94.5557 4.70426 93.7469 5.05089C92.9546 5.39752 92.2696 5.8762 91.6919 6.48693C91.1142 7.08116 90.6685 7.79092 90.3549 8.61623C90.0413 9.44154 89.8845 10.3329 89.8845 11.2902C89.8845 12.2806 90.033 13.1884 90.3301 14.0138C90.6437 14.8391 91.0812 15.5488 91.6424 16.1431C92.2036 16.7373 92.8886 17.1994 93.6974 17.5296C94.5062 17.8432 95.414 18 96.4209 18C97.8734 18 99.1114 17.6699 100.135 17.0096C101.158 16.3494 101.917 15.2517 102.413 13.7166H99.3177C99.2022 14.1128 98.8886 14.4924 98.3769 14.8556C97.8652 15.2022 97.2545 15.3755 96.5447 15.3755C95.5543 15.3755 94.795 15.1197 94.2668 14.608C93.7386 14.0963 93.4498 13.271 93.4003 12.132Z" fill="white"/>
<path d="M104.721 4.87758V17.6781H108.236V11.9092C108.236 11.3315 108.294 10.795 108.41 10.2999C108.525 9.80468 108.715 9.37551 108.979 9.01238C109.26 8.63274 109.623 8.33563 110.069 8.12105C110.514 7.90646 111.059 7.79917 111.703 7.79917C111.917 7.79917 112.14 7.81568 112.371 7.84869C112.602 7.8652 112.8 7.88996 112.966 7.92297V4.65475C112.685 4.57221 112.429 4.53095 112.198 4.53095C111.752 4.53095 111.323 4.59697 110.91 4.72902C110.498 4.86107 110.11 5.05089 109.747 5.29849C109.384 5.52957 109.062 5.81843 108.781 6.16506C108.501 6.49519 108.278 6.85832 108.113 7.25447H108.063V4.87758H104.721Z" fill="white"/>
<path d="M114.988 0V17.6781H117.216V2.97111H117.266L122.787 17.6781H124.792L130.314 2.97111H130.363V17.6781H132.592V0H129.373L123.777 14.8556L118.206 0H114.988Z" fill="white"/>
<path d="M145.048 10.0523H137.694C137.727 9.55708 137.835 9.09491 138.016 8.66575C138.198 8.22008 138.445 7.83219 138.759 7.50206C139.073 7.17194 139.444 6.91609 139.873 6.73452C140.319 6.53645 140.814 6.43741 141.359 6.43741C141.887 6.43741 142.365 6.53645 142.795 6.73452C143.24 6.91609 143.62 7.17194 143.934 7.50206C144.264 7.81568 144.52 8.19532 144.701 8.64099C144.899 9.08666 145.015 9.55708 145.048 10.0523ZM147.078 13.6176H144.998C144.817 14.4594 144.437 15.0867 143.859 15.4993C143.298 15.912 142.572 16.1183 141.68 16.1183C140.987 16.1183 140.385 16.0028 139.873 15.7717C139.361 15.5406 138.94 15.2352 138.61 14.8556C138.28 14.4594 138.041 14.0138 137.892 13.5186C137.744 13.0069 137.678 12.4704 137.694 11.9092H147.276C147.309 11.1334 147.235 10.3164 147.053 9.45805C146.888 8.59973 146.575 7.80743 146.112 7.08115C145.667 6.35488 145.064 5.76066 144.305 5.29849C143.562 4.81981 142.621 4.58047 141.482 4.58047C140.608 4.58047 139.799 4.74553 139.056 5.07565C138.33 5.40578 137.694 5.86795 137.15 6.46217C136.621 7.0564 136.209 7.75791 135.912 8.56671C135.614 9.37552 135.466 10.2668 135.466 11.2407C135.499 12.2146 135.639 13.1142 135.887 13.9395C136.151 14.7648 136.539 15.4746 137.051 16.0688C137.562 16.663 138.189 17.1252 138.932 17.4553C139.691 17.7854 140.583 17.9505 141.606 17.9505C143.059 17.9505 144.264 17.5873 145.221 16.8611C146.178 16.1348 146.797 15.0536 147.078 13.6176Z" fill="white"/>
<path d="M152.379 4.87758V1.03989H150.275V4.87758H148.096V6.73452H150.275V14.8803C150.275 15.4746 150.332 15.9532 150.448 16.3164C150.564 16.6795 150.737 16.9601 150.968 17.1582C151.216 17.3563 151.529 17.4966 151.909 17.5791C152.305 17.6451 152.775 17.6781 153.32 17.6781H154.929V15.8212H153.964C153.634 15.8212 153.361 15.8129 153.147 15.7964C152.949 15.7634 152.792 15.7056 152.676 15.6231C152.561 15.5406 152.478 15.425 152.429 15.2765C152.396 15.1279 152.379 14.9298 152.379 14.6823V6.73452H154.929V4.87758H152.379Z" fill="white"/>
<path d="M166.156 10.0523H158.802C158.836 9.55708 158.943 9.09491 159.124 8.66575C159.306 8.22008 159.554 7.83219 159.867 7.50206C160.181 7.17194 160.552 6.91609 160.981 6.73452C161.427 6.53645 161.922 6.43741 162.467 6.43741C162.995 6.43741 163.474 6.53645 163.903 6.73452C164.349 6.91609 164.728 7.17194 165.042 7.50206C165.372 7.81568 165.628 8.19532 165.809 8.64099C166.007 9.08666 166.123 9.55708 166.156 10.0523ZM168.186 13.6176H166.106C165.925 14.4594 165.545 15.0867 164.968 15.4993C164.406 15.912 163.68 16.1183 162.789 16.1183C162.095 16.1183 161.493 16.0028 160.981 15.7717C160.47 15.5406 160.049 15.2352 159.719 14.8556C159.388 14.4594 159.149 14.0138 159.001 13.5186C158.852 13.0069 158.786 12.4704 158.802 11.9092H168.384C168.417 11.1334 168.343 10.3164 168.162 9.45805C167.996 8.59973 167.683 7.80743 167.221 7.08115C166.775 6.35488 166.173 5.76066 165.413 5.29849C164.67 4.81981 163.73 4.58047 162.591 4.58047C161.716 4.58047 160.907 4.74553 160.164 5.07565C159.438 5.40578 158.802 5.86795 158.258 6.46217C157.73 7.0564 157.317 7.75791 157.02 8.56671C156.723 9.37552 156.574 10.2668 156.574 11.2407C156.607 12.2146 156.747 13.1142 156.995 13.9395C157.259 14.7648 157.647 15.4746 158.159 16.0688C158.67 16.663 159.298 17.1252 160.04 17.4553C160.8 17.7854 161.691 17.9505 162.714 17.9505C164.167 17.9505 165.372 17.5873 166.329 16.8611C167.287 16.1348 167.906 15.0536 168.186 13.6176Z" fill="white"/>
<path d="M170.492 4.87758V17.6781H172.596V11.9835C172.596 11.1582 172.679 10.4319 172.844 9.80468C173.009 9.16093 173.273 8.61623 173.636 8.17056C173.999 7.7249 174.478 7.38652 175.072 7.15543C175.666 6.92435 176.384 6.8088 177.226 6.8088V4.58047C176.087 4.54746 175.146 4.77854 174.404 5.27373C173.661 5.76891 173.034 6.53645 172.522 7.57634H172.472V4.87758H170.492Z" fill="white"/>
<rect x="14.672" y="1.17194" width="15.1188" height="3.55737" rx="1.77868" fill="#F73859"/>
<rect x="12.8933" y="7.39734" width="11.5614" height="3.55737" rx="1.77868" fill="#F73859"/>
<rect x="4" y="7.39734" width="7.11474" height="3.55737" rx="1.77868" fill="#F73859"/>
<rect x="26.2335" y="7.39734" width="3.55737" height="3.55737" rx="1.77868" fill="#F73859"/>
<rect x="4" y="13.6227" width="3.55737" height="3.55737" rx="1.77868" fill="#F73859"/>
<rect x="9.33606" y="13.6227" width="20.4549" height="3.55737" rx="1.77868" fill="#F73859"/>
</g>
<defs>
<filter id="filter0_d" x="0" y="0" width="181.226" height="26" filterUnits="userSpaceOnUse" color-interpolation-filters="sRGB">
<feFlood flood-opacity="0" result="BackgroundImageFix"/>
<feColorMatrix in="SourceAlpha" type="matrix" values="0 0 0 0 0 0 0 0 0 0 0 0 0 0 0 0 0 0 127 0"/>
<feOffset dy="4"/>
<feGaussianBlur stdDeviation="2"/>
<feColorMatrix type="matrix" values="0 0 0 0 0 0 0 0 0 0 0 0 0 0 0 0 0 0 0.25 0"/>
<feBlend mode="normal" in2="BackgroundImageFix" result="effect1_dropShadow"/>
<feBlend mode="normal" in="SourceGraphic" in2="effect1_dropShadow" result="shape"/>
</filter>
</defs>
</svg>
